<svg width="46" height="45" viewBox="0 0 46 45" fill="none" xmlns="http://www.w3.org/2000/svg">
<g filter="url(#filter0_d_5981_516)">
<rect x="6.92578" y="6.92578" width="28.2802" height="28.2802" rx="14.1401" fill="url(#paint0_linear_5981_516)"/>
</g>
<path d="M18.5491 14.7309L14.7379 18.4291C14.6388 18.5253 14.4688 18.4566 14.4688 18.3191V15.3221C14.4688 14.8547 14.8655 14.4697 15.3472 14.4697H18.4358C18.5775 14.4697 18.6483 14.6347 18.5491 14.7309Z" fill="white"/>
<path d="M27.8291 15.0059C27.8291 15.1434 27.7724 15.2808 27.6732 15.3771C27.6591 15.3908 27.6591 15.3908 27.6449 15.4046L24.2446 18.7041L20.3343 22.4985L19.0875 23.7083L18.8183 23.9557L15.9847 26.7191L14.7238 27.9426C14.5679 27.7776 14.4688 27.5714 14.4688 27.324V22.2648C14.4688 22.0585 14.5538 21.8661 14.7096 21.7148L21.9352 14.7034C22.0911 14.5522 22.2894 14.4697 22.502 14.4697H27.2765C27.5741 14.4697 27.8291 14.7172 27.8291 15.0059Z" fill="white"/>
<path d="M28.1577 24.2682C28.1577 24.337 28.1294 24.4057 28.0869 24.4607C28.0727 24.4745 28.0586 24.4882 28.0444 24.502L24.7291 27.7327C24.4316 28.0214 24.0207 28.1864 23.5957 28.1864H15.35C15.1091 28.1864 14.8824 28.0902 14.7266 27.9389L15.9733 26.7291L18.8211 23.952L19.0761 23.7046C19.232 23.8558 19.4587 23.952 19.6995 23.952H27.8319C28.0161 23.952 28.1577 24.1033 28.1577 24.2682Z" fill="white"/>
<path d="M32.8984 0C32.8984 0 33.1532 2.37782 34.1455 3.37012C35.1378 4.36243 37.5156 4.61718 37.5156 4.61718C37.5156 4.61718 35.1378 4.87194 34.1455 5.86424C33.1532 6.85654 32.8984 9.23436 32.8984 9.23436C32.8984 9.23436 32.6437 6.85654 31.6514 5.86424C30.6591 4.87194 28.2812 4.61718 28.2812 4.61718C28.2812 4.61718 30.6591 4.36243 31.6514 3.37012C32.6437 2.37782 32.8984 0 32.8984 0Z" fill="#051D53"/>
<path d="M38.666 8.65625C38.666 8.65625 38.8571 10.4396 39.6013 11.1838C40.3455 11.9281 42.1289 12.1191 42.1289 12.1191C42.1289 12.1191 40.3455 12.3102 39.6013 13.0544C38.8571 13.7987 38.666 15.582 38.666 15.582C38.666 15.582 38.4749 13.7987 37.7307 13.0544C36.9865 12.3102 35.2031 12.1191 35.2031 12.1191C35.2031 12.1191 36.9865 11.9281 37.7307 11.1838C38.4749 10.4396 38.666 8.65625 38.666 8.65625Z" fill="#654CFF"/>
<path d="M43.2871 1.72949C43.2871 1.72949 43.4145 2.9184 43.9106 3.41455C44.4068 3.91071 45.5957 4.03808 45.5957 4.03808C45.5957 4.03808 44.4068 4.16546 43.9106 4.66161C43.4145 5.15776 43.2871 6.34667 43.2871 6.34667C43.2871 6.34667 43.1597 5.15776 42.6636 4.66161C42.1674 4.16546 40.9785 4.03808 40.9785 4.03808C40.9785 4.03808 42.1674 3.91071 42.6636 3.41455C43.1597 2.9184 43.2871 1.72949 43.2871 1.72949Z" fill="#A1AAFF"/>
<defs>
<filter id="filter0_d_5981_516" x="8.58307e-06" y="1.99117" width="42.1308" height="42.1318" filterUnits="userSpaceOnUse" color-interpolation-filters="sRGB">
<feFlood flood-opacity="0" result="BackgroundImageFix"/>
<feColorMatrix in="SourceAlpha" type="matrix" values="0 0 0 0 0 0 0 0 0 0 0 0 0 0 0 0 0 0 127 0" result="hardAlpha"/>
<feOffset dy="1.99116"/>
<feGaussianBlur stdDeviation="3.46289"/>
<feComposite in2="hardAlpha" operator="out"/>
<feColorMatrix type="matrix" values="0 0 0 0 0.488538 0 0 0 0 0 0 0 0 0 0.610673 0 0 0 0.3 0"/>
<feBlend mode="normal" in2="BackgroundImageFix" result="effect1_dropShadow_5981_516"/>
<feBlend mode="normal" in="SourceGraphic" in2="effect1_dropShadow_5981_516" result="shape"/>
</filter>
<linearGradient id="paint0_linear_5981_516" x1="11.543" y1="9.81152" x2="30.0117" y2="32.6089" gradientUnits="userSpaceOnUse">
<stop offset="0.0624894" stop-color="#DF8DFF"/>
<stop offset="0.496582" stop-color="#3371FF"/>
<stop offset="0.649043" stop-color="#004EFF"/>
<stop offset="1" stop-color="#FF4CAE"/>
</linearGradient>
</defs>
</svg>
